<svg width="47" height="58" viewBox="0 0 47 58" fill="none" xmlns="http://www.w3.org/2000/svg">
<path d="M26.4375 20.3H42.5938L26.4375 4.35V20.3ZM5.875 0H29.375L47 17.4V52.2C47 53.7383 46.381 55.2135 45.2793 56.3012C44.1775 57.3889 42.6831 58 41.125 58H5.875C4.31685 58 2.82252 57.3889 1.72075 56.3012C0.618971 55.2135 0 53.7383 0 52.2V5.8C0 2.581 2.61437 0 5.875 0ZM29.375 52.2V49.3C29.375 45.443 21.5319 43.5 17.625 43.5C13.7181 43.5 5.875 45.443 5.875 49.3V52.2H29.375ZM17.625 29C16.0669 29 14.5725 29.6111 13.4707 30.6988C12.369 31.7865 11.75 33.2617 11.75 34.8C11.75 36.3383 12.369 37.8135 13.4707 38.9012C14.5725 39.9889 16.0669 40.6 17.625 40.6C19.1831 40.6 20.6775 39.9889 21.7793 38.9012C22.881 37.8135 23.5 36.3383 23.5 34.8C23.5 33.2617 22.881 31.7865 21.7793 30.6988C20.6775 29.6111 19.1831 29 17.625 29Z" fill="white"/>
</svg>
