<svg width="179" height="58" viewBox="0 0 179 58" fill="none" xmlns="http://www.w3.org/2000/svg">
<path d="M26.4375 20.3H42.5938L26.4375 4.35V20.3ZM5.875 0H29.375L47 17.4V52.2C47 53.7383 46.381 55.2135 45.2793 56.3012C44.1775 57.3889 42.6831 58 41.125 58H5.875C4.31685 58 2.82252 57.3889 1.72075 56.3012C0.618971 55.2135 0 53.7383 0 52.2V5.8C0 2.581 2.61437 0 5.875 0ZM29.375 52.2V49.3C29.375 45.443 21.5319 43.5 17.625 43.5C13.7181 43.5 5.875 45.443 5.875 49.3V52.2H29.375ZM17.625 29C16.0669 29 14.5725 29.6111 13.4707 30.6988C12.369 31.7865 11.75 33.2617 11.75 34.8C11.75 36.3383 12.369 37.8135 13.4707 38.9012C14.5725 39.9889 16.0669 40.6 17.625 40.6C19.1831 40.6 20.6775 39.9889 21.7793 38.9012C22.881 37.8135 23.5 36.3383 23.5 34.8C23.5 33.2617 22.881 31.7865 21.7793 30.6988C20.6775 29.6111 19.1831 29 17.625 29Z" fill="#0D1F2D"/>
<path d="M62.075 29.275C62.075 27.575 62.4583 26.05 63.225 24.7C63.9917 23.3333 65.0333 22.2667 66.35 21.5C67.6833 20.7333 69.1583 20.35 70.775 20.35C72.675 20.35 74.3333 20.8083 75.75 21.725C77.1667 22.6417 78.2 23.9417 78.85 25.625H76.125C75.6417 24.575 74.9417 23.7667 74.025 23.2C73.125 22.6333 72.0417 22.35 70.775 22.35C69.5583 22.35 68.4667 22.6333 67.5 23.2C66.5333 23.7667 65.775 24.575 65.225 25.625C64.675 26.6583 64.4 27.875 64.4 29.275C64.4 30.6583 64.675 31.875 65.225 32.925C65.775 33.9583 66.5333 34.7583 67.5 35.325C68.4667 35.8917 69.5583 36.175 70.775 36.175C72.0417 36.175 73.125 35.9 74.025 35.35C74.9417 34.7833 75.6417 33.975 76.125 32.925H78.85C78.2 34.5917 77.1667 35.8833 75.75 36.8C74.3333 37.7 72.675 38.15 70.775 38.15C69.1583 38.15 67.6833 37.775 66.35 37.025C65.0333 36.2583 63.9917 35.2 63.225 33.85C62.4583 32.5 62.075 30.975 62.075 29.275ZM96.6365 20.575L90.0615 38H87.4365L80.8615 20.575H83.2865L88.7615 35.6L94.2365 20.575H96.6365ZM116.806 20.7V38H114.531V25.1L108.781 38H107.181L101.406 25.075V38H99.1311V20.7H101.581L107.981 35L114.381 20.7H116.806ZM119.814 31.1C119.814 29.7 120.098 28.475 120.664 27.425C121.231 26.3583 122.006 25.5333 122.989 24.95C123.989 24.3667 125.098 24.075 126.314 24.075C127.514 24.075 128.556 24.3333 129.439 24.85C130.323 25.3667 130.981 26.0167 131.414 26.8V24.3H133.714V38H131.414V35.45C130.964 36.25 130.289 36.9167 129.389 37.45C128.506 37.9667 127.473 38.225 126.289 38.225C125.073 38.225 123.973 37.925 122.989 37.325C122.006 36.725 121.231 35.8833 120.664 34.8C120.098 33.7167 119.814 32.4833 119.814 31.1ZM131.414 31.125C131.414 30.0917 131.206 29.1917 130.789 28.425C130.373 27.6583 129.806 27.075 129.089 26.675C128.389 26.2583 127.614 26.05 126.764 26.05C125.914 26.05 125.139 26.25 124.439 26.65C123.739 27.05 123.181 27.6333 122.764 28.4C122.348 29.1667 122.139 30.0667 122.139 31.1C122.139 32.15 122.348 33.0667 122.764 33.85C123.181 34.6167 123.739 35.2083 124.439 35.625C125.139 36.025 125.914 36.225 126.764 36.225C127.614 36.225 128.389 36.025 129.089 35.625C129.806 35.2083 130.373 34.6167 130.789 33.85C131.206 33.0667 131.414 32.1583 131.414 31.125ZM145.209 38L139.834 31.95V38H137.559V19.5H139.834V30.375L145.109 24.3H148.284L141.834 31.125L148.309 38H145.209ZM162.925 30.625C162.925 31.0583 162.9 31.5167 162.85 32H151.9C151.983 33.35 152.442 34.4083 153.275 35.175C154.125 35.925 155.15 36.3 156.35 36.3C157.333 36.3 158.15 36.075 158.8 35.625C159.467 35.1583 159.933 34.5417 160.2 33.775H162.65C162.283 35.0917 161.55 36.1667 160.45 37C159.35 37.8167 157.983 38.225 156.35 38.225C155.05 38.225 153.883 37.9333 152.85 37.35C151.833 36.7667 151.033 35.9417 150.45 34.875C149.867 33.7917 149.575 32.5417 149.575 31.125C149.575 29.7083 149.858 28.4667 150.425 27.4C150.992 26.3333 151.783 25.5167 152.8 24.95C153.833 24.3667 155.017 24.075 156.35 24.075C157.65 24.075 158.8 24.3583 159.8 24.925C160.8 25.4917 161.567 26.275 162.1 27.275C162.65 28.2583 162.925 29.375 162.925 30.625ZM160.575 30.15C160.575 29.2833 160.383 28.5417 160 27.925C159.617 27.2917 159.092 26.8167 158.425 26.5C157.775 26.1667 157.05 26 156.25 26C155.1 26 154.117 26.3667 153.3 27.1C152.5 27.8333 152.042 28.85 151.925 30.15H160.575ZM168.203 26.525C168.603 25.7417 169.17 25.1333 169.903 24.7C170.653 24.2667 171.561 24.05 172.628 24.05V26.4H172.028C169.478 26.4 168.203 27.7833 168.203 30.55V38H165.928V24.3H168.203V26.525Z" fill="#0D1F2D"/>
</svg>
