<svg width="183" height="58" viewBox="0 0 183 58" fill="none" xmlns="http://www.w3.org/2000/svg">
<path d="M26.4375 20.3H42.5938L26.4375 4.35V20.3ZM5.875 0H29.375L47 17.4V52.2C47 53.7383 46.381 55.2135 45.2793 56.3012C44.1775 57.3889 42.6831 58 41.125 58H5.875C4.31685 58 2.82252 57.3889 1.72075 56.3012C0.618971 55.2135 0 53.7383 0 52.2V5.8C0 2.581 2.61437 0 5.875 0ZM29.375 52.2V49.3C29.375 45.443 21.5319 43.5 17.625 43.5C13.7181 43.5 5.875 45.443 5.875 49.3V52.2H29.375ZM17.625 29C16.0669 29 14.5725 29.6111 13.4707 30.6988C12.369 31.7865 11.75 33.2617 11.75 34.8C11.75 36.3383 12.369 37.8135 13.4707 38.9012C14.5725 39.9889 16.0669 40.6 17.625 40.6C19.1831 40.6 20.6775 39.9889 21.7793 38.9012C22.881 37.8135 23.5 36.3383 23.5 34.8C23.5 33.2617 22.881 31.7865 21.7793 30.6988C20.6775 29.6111 19.1831 29 17.625 29Z" fill="#0D1F2D"/>
<path d="M62.075 29.275C62.075 27.575 62.4583 26.05 63.225 24.7C63.9917 23.3333 65.0333 22.2667 66.35 21.5C67.6833 20.7333 69.1583 20.35 70.775 20.35C72.675 20.35 74.3333 20.8083 75.75 21.725C77.1667 22.6417 78.2 23.9417 78.85 25.625H76.125C75.6417 24.575 74.9417 23.7667 74.025 23.2C73.125 22.6333 72.0417 22.35 70.775 22.35C69.5583 22.35 68.4667 22.6333 67.5 23.2C66.5333 23.7667 65.775 24.575 65.225 25.625C64.675 26.6583 64.4 27.875 64.4 29.275C64.4 30.6583 64.675 31.875 65.225 32.925C65.775 33.9583 66.5333 34.7583 67.5 35.325C68.4667 35.8917 69.5583 36.175 70.775 36.175C72.0417 36.175 73.125 35.9 74.025 35.35C74.9417 34.7833 75.6417 33.975 76.125 32.925H78.85C78.2 34.5917 77.1667 35.8833 75.75 36.8C74.3333 37.7 72.675 38.15 70.775 38.15C69.1583 38.15 67.6833 37.775 66.35 37.025C65.0333 36.2583 63.9917 35.2 63.225 33.85C62.4583 32.5 62.075 30.975 62.075 29.275ZM96.6365 20.575L90.0615 38H87.4365L80.8615 20.575H83.2865L88.7615 35.6L94.2365 20.575H96.6365ZM116.806 20.7V38H114.531V25.1L108.781 38H107.181L101.406 25.075V38H99.1311V20.7H101.581L107.981 35L114.381 20.7H116.806ZM119.814 31.1C119.814 29.7 120.098 28.475 120.664 27.425C121.231 26.3583 122.006 25.5333 122.989 24.95C123.989 24.3667 125.098 24.075 126.314 24.075C127.514 24.075 128.556 24.3333 129.439 24.85C130.323 25.3667 130.981 26.0167 131.414 26.8V24.3H133.714V38H131.414V35.45C130.964 36.25 130.289 36.9167 129.389 37.45C128.506 37.9667 127.473 38.225 126.289 38.225C125.073 38.225 123.973 37.925 122.989 37.325C122.006 36.725 121.231 35.8833 120.664 34.8C120.098 33.7167 119.814 32.4833 119.814 31.1ZM131.414 31.125C131.414 30.0917 131.206 29.1917 130.789 28.425C130.373 27.6583 129.806 27.075 129.089 26.675C128.389 26.2583 127.614 26.05 126.764 26.05C125.914 26.05 125.139 26.25 124.439 26.65C123.739 27.05 123.181 27.6333 122.764 28.4C122.348 29.1667 122.139 30.0667 122.139 31.1C122.139 32.15 122.348 33.0667 122.764 33.85C123.181 34.6167 123.739 35.2083 124.439 35.625C125.139 36.025 125.914 36.225 126.764 36.225C127.614 36.225 128.389 36.025 129.089 35.625C129.806 35.2083 130.373 34.6167 130.789 33.85C131.206 33.0667 131.414 32.1583 131.414 31.125ZM142.409 38.225C141.359 38.225 140.417 38.05 139.584 37.7C138.75 37.3333 138.092 36.8333 137.609 36.2C137.125 35.55 136.859 34.8083 136.809 33.975H139.159C139.225 34.6583 139.542 35.2167 140.109 35.65C140.692 36.0833 141.45 36.3 142.384 36.3C143.25 36.3 143.934 36.1083 144.434 35.725C144.934 35.3417 145.184 34.8583 145.184 34.275C145.184 33.675 144.917 33.2333 144.384 32.95C143.85 32.65 143.025 32.3583 141.909 32.075C140.892 31.8083 140.059 31.5417 139.409 31.275C138.775 30.9917 138.225 30.5833 137.759 30.05C137.309 29.5 137.084 28.7833 137.084 27.9C137.084 27.2 137.292 26.5583 137.709 25.975C138.125 25.3917 138.717 24.9333 139.484 24.6C140.25 24.25 141.125 24.075 142.109 24.075C143.625 24.075 144.85 24.4583 145.784 25.225C146.717 25.9917 147.217 27.0417 147.284 28.375H145.009C144.959 27.6583 144.667 27.0833 144.134 26.65C143.617 26.2167 142.917 26 142.034 26C141.217 26 140.567 26.175 140.084 26.525C139.6 26.875 139.359 27.3333 139.359 27.9C139.359 28.35 139.5 28.725 139.784 29.025C140.084 29.3083 140.45 29.5417 140.884 29.725C141.334 29.8917 141.95 30.0833 142.734 30.3C143.717 30.5667 144.517 30.8333 145.134 31.1C145.75 31.35 146.275 31.7333 146.709 32.25C147.159 32.7667 147.392 33.4417 147.409 34.275C147.409 35.025 147.2 35.7 146.784 36.3C146.367 36.9 145.775 37.375 145.009 37.725C144.259 38.0583 143.392 38.225 142.409 38.225ZM153.395 26.175V34.25C153.395 34.9167 153.537 35.3917 153.82 35.675C154.104 35.9417 154.595 36.075 155.295 36.075H156.97V38H154.92C153.654 38 152.704 37.7083 152.07 37.125C151.437 36.5417 151.12 35.5833 151.12 34.25V26.175H149.345V24.3H151.12V20.85H153.395V24.3H156.97V26.175H153.395ZM172.227 30.625C172.227 31.0583 172.202 31.5167 172.152 32H161.202C161.285 33.35 161.743 34.4083 162.577 35.175C163.427 35.925 164.452 36.3 165.652 36.3C166.635 36.3 167.452 36.075 168.102 35.625C168.768 35.1583 169.235 34.5417 169.502 33.775H171.952C171.585 35.0917 170.852 36.1667 169.752 37C168.652 37.8167 167.285 38.225 165.652 38.225C164.352 38.225 163.185 37.9333 162.152 37.35C161.135 36.7667 160.335 35.9417 159.752 34.875C159.168 33.7917 158.877 32.5417 158.877 31.125C158.877 29.7083 159.16 28.4667 159.727 27.4C160.293 26.3333 161.085 25.5167 162.102 24.95C163.135 24.3667 164.318 24.075 165.652 24.075C166.952 24.075 168.102 24.3583 169.102 24.925C170.102 25.4917 170.868 26.275 171.402 27.275C171.952 28.2583 172.227 29.375 172.227 30.625ZM169.877 30.15C169.877 29.2833 169.685 28.5417 169.302 27.925C168.918 27.2917 168.393 26.8167 167.727 26.5C167.077 26.1667 166.352 26 165.552 26C164.402 26 163.418 26.3667 162.602 27.1C161.802 27.8333 161.343 28.85 161.227 30.15H169.877ZM177.505 26.525C177.905 25.7417 178.471 25.1333 179.205 24.7C179.955 24.2667 180.863 24.05 181.93 24.05V26.4H181.33C178.78 26.4 177.505 27.7833 177.505 30.55V38H175.23V24.3H177.505V26.525Z" fill="#0D1F2D"/>
</svg>
